# xmcd
#
# Track frame offsets: 
#        150
#        11510
#        33227
#        36707
#        55725
#        66832
#        84800
#        91582
#        104382
#        121760
#        148007
#        175620
#        184612
#        243355
#        283322
#        293622
#        299140
#        321412
#        332327
#        339880
#
# Disc length: 4659 seconds
#
# Revision: 10
# Processed by: cddbd v1.5.2PL0 Copyright (c) Steve Scherf et al.
# Submitted via: ExactAudioCopy v1.1
#
DISCID=1a123114
DTITLE=The Romeros - The Royal Family of the Spanish Guitar
DYEAR=1962
DGENRE=Classical
TTITLE0=Traditional Spanish Folk Melody - Sevillanas
TTITLE1=Celin and Pepe Romero - Granados Intermezo from Goyescas
TTITLE2=Angel Romero - Moreno Torroba Llamada
TTITLE3=Angel Romero - Albeniz Sevilla fromo Suite Espanola
TTITLE4=Celin and Pepe Romero - Sor Obligato on Etude in B Minor
TTITLE5=Celedonio Romero Noche en Malaga
TTITLE6=Celedonio Romero - Tarrega Lagrima(Preludio)
TTITLE7=Celedonio Romero - Celedonio Romero Romantic Prelude
TTITLE8=Celin Romero - Moreno Torroba Allegretto from Sonatina in A
TTITLE9=Celin Romero - Villa-Lobos Prelude No 3 in a minor
TTITLE10=Celedonio Romero - de Visee Suite in d minor
TTITLE11=Celedonio Romero - Narvaez Cuatro diferencias sobre: guardame
TTITLE11=las vacas
TTITLE12=Celedonio Romero - Galilei Suite of Six Dances
TTITLE13=Celedonio Romero - Milan Three Pavanas
TTITLE14=Celedonio Romero - Bach Minuet
TTITLE15=Celedonio Romero - Bach Bourree
TTITLE16=Celedonio Romero - Bach Gavottes I and II
TTITLE17=Celedonio Romero - Dowland King of Denmark's Galliard
TTITLE18=Celedonio Romero - Rameau Gavotte en rondeau
TTITLE19=Celedonio Romero - Sanz Espanoleta
EXTD=
EXTT0=
EXTT1=
EXTT2=
EXTT3=
EXTT4=
EXTT5=
EXTT6=
EXTT7=
EXTT8=
EXTT9=
EXTT10=
EXTT11=
EXTT12=
EXTT13=
EXTT14=
EXTT15=
EXTT16=
EXTT17=
EXTT18=
EXTT19=
PLAYORDER=
